<?xml version="1.0" encoding="UTF-8" standalone="no"?>
<!-- Created with Inkscape (http://www.inkscape.org/) -->

<svg
   xmlns:dc="http://purl.org/dc/elements/1.1/"
   xmlns:cc="http://creativecommons.org/ns#"
   xmlns:rdf="http://www.w3.org/1999/02/22-rdf-syntax-ns#"
   xmlns:svg="http://www.w3.org/2000/svg"
   xmlns="http://www.w3.org/2000/svg"
   xmlns:sodipodi="http://sodipodi.sourceforge.net/DTD/sodipodi-0.dtd"
   xmlns:inkscape="http://www.inkscape.org/namespaces/inkscape"
   id="svg2"
   version="1.1"
   inkscape:version="0.47 r22583"
   width="201.76613"
   height="100.16138"
   xml:space="preserve"
   sodipodi:docname="logo_crdp.svg"><metadata
     id="metadata8"><rdf:RDF><cc:Work
         rdf:about=""><dc:format>image/svg+xml</dc:format><dc:type
           rdf:resource="http://purl.org/dc/dcmitype/StillImage" /><dc:title /></cc:Work></rdf:RDF></metadata><defs
     id="defs6"><inkscape:perspective
       sodipodi:type="inkscape:persp3d"
       inkscape:vp_x="0 : 0.5 : 1"
       inkscape:vp_y="0 : 1000 : 0"
       inkscape:vp_z="1 : 0.5 : 1"
       inkscape:persp3d-origin="0.5 : 0.33333333 : 1"
       id="perspective10" /><clipPath
       clipPathUnits="userSpaceOnUse"
       id="clipPath18"><path
         d="m 0,113.386 184.252,0 L 184.252,0 0,0 0,113.386 z"
         id="path20" /></clipPath></defs><sodipodi:namedview
     pagecolor="#ffffff"
     bordercolor="#666666"
     borderopacity="1"
     objecttolerance="10"
     gridtolerance="10"
     guidetolerance="10"
     inkscape:pageopacity="0"
     inkscape:pageshadow="2"
     inkscape:window-width="1655"
     inkscape:window-height="975"
     id="namedview4"
     showgrid="false"
     inkscape:zoom="1.6651086"
     inkscape:cx="-32.337423"
     inkscape:cy="9.5830046"
     inkscape:window-x="0"
     inkscape:window-y="25"
     inkscape:window-maximized="1"
     inkscape:current-layer="g54"
     showguides="true"
     inkscape:guide-bbox="true"><inkscape:grid
       type="xygrid"
       id="grid2940"
       empspacing="5"
       visible="true"
       enabled="true"
       snapvisiblegridlinesonly="true" /><sodipodi:guide
       orientation="1,0"
       position="35.314,-97.900172"
       id="guide2942" /></sodipodi:namedview><g
     id="g12"
     inkscape:groupmode="layer"
     inkscape:label="CRDP_NR_versailles"
     transform="matrix(1.25,0,0,-1.25,-7.9264228,121.79025)"><g
       clip-path="url(#clipPath18)"
       id="g16"><g
   transform="translate(32.7627,54.9795)"
   id="g22"><path
     id="path24"
     style="fill:#231f20;fill-opacity:1;fill-rule:nonzero;stroke:none"
     d="m 0,0 c -1.777,-7.884 -9.607,-12.313 -16.461,-18.373 -8.786,-8.764 -9.74,-16.934 -9.698,-19.004 0.007,-0.323 -0.122,-0.299 -0.122,-0.299 0,0 -2.172,12.208 10.56,23.371 5.367,4.633 12.735,8.653 14.984,14.486 L 0,0 z" /></g>

<g
   transform="translate(20.8838,97.1333)"
   id="g34"><path
     id="path36"
     style="fill:#231f20;fill-opacity:1;fill-rule:nonzero;stroke:#231f20;stroke-width:0.25;stroke-linecap:butt;stroke-linejoin:miter;stroke-miterlimit:4;stroke-opacity:1;stroke-dasharray:none"
     d="m 0,0 c 0.078,-1.685 -1.179,-4.537 5.574,-10.887 3.671,-3.454 5.384,-5.805 5.384,-8.309 l 0.41,0 c -0.242,2.492 -0.51,5.821 -3.961,9.195 C 2.256,-4.97 0.388,-3.332 0.045,0.073 0.029,0.234 0.013,0.197 0,0" /></g><g
   transform="translate(107.3115,68.4463)"
   id="g38"><path
     id="path40"
     style="fill:#ee293d;fill-opacity:1;fill-rule:nonzero;stroke:none"
     d="m 0,0 c -0.504,-0.271 -1.24,-0.154 -1.521,0.363 -0.285,0.516 -0.366,0.673 -0.588,0.825 -0.217,0.145 -0.402,0.209 -0.744,0.209 l -1.105,0 0,-8.017 c 0,-0.652 -0.543,-1.176 -1.202,-1.176 -0.666,0 -1.199,0.524 -1.199,1.176 l 0,9.034 c 0.006,0.901 0.355,1.407 1.199,1.407 l 2.307,0 c 0.828,0 1.539,-0.124 2.324,-0.74 C 0.088,2.593 0.375,2.17 0.572,1.478 0.627,1.33 0.656,1.181 0.649,1.036 0.649,0.604 0.421,0.22 0,0 m -3.864,9.641 c -6.576,0 -11.902,-5.324 -11.902,-11.897 0,-6.574 5.326,-11.896 11.902,-11.896 6.569,0 11.894,5.322 11.894,11.896 0,6.573 -5.325,11.897 -11.894,11.897" /></g><g
   transform="translate(54.7783,63.3486)"
   id="g42"><path
     id="path44"
     style="fill:#ee293d;fill-opacity:1;fill-rule:nonzero;stroke:none"
     d="m 0,0 c 0.22,-0.218 0.411,-0.288 0.801,-0.288 l 2.301,0 c 0.65,0 1.196,-0.562 1.196,-1.224 0,-0.663 -0.533,-1.196 -1.196,-1.196 l -2.301,0 c -1.095,0 -1.828,0.278 -2.549,0.976 -0.817,0.814 -0.982,1.598 -0.982,2.527 l 0,4.606 c 0,1.056 0.287,1.79 1.008,2.532 0.737,0.708 1.467,0.999 2.523,0.999 l 2.301,0 c 0.65,0 1.196,-0.558 1.196,-1.228 C 4.298,7.048 3.765,6.51 3.102,6.51 l -2.301,0 C 0.439,6.51 0.233,6.424 0,6.201 -0.229,5.967 -0.307,5.765 -0.307,5.401 l 0,-4.606 C -0.307,0.433 -0.229,0.225 0,0 m 0.905,14.738 c -6.57,0 -11.895,-5.323 -11.895,-11.896 0,-6.574 5.325,-11.897 11.895,-11.897 6.576,0 11.901,5.323 11.901,11.897 0,6.573 -5.325,11.896 -11.901,11.896" /></g><g
   transform="translate(155.0889,61.8345)"
   id="g46"><path
     id="path48"
     style="fill:#ee293d;fill-opacity:1;fill-rule:nonzero;stroke:none"
     d="m 0,0 c 0,-0.661 -0.53,-1.199 -1.196,-1.199 -0.662,0 -1.221,0.55 -1.221,1.199 l 0,6.916 c 0,0.345 -0.078,0.539 -0.311,0.77 C -2.982,7.938 -3.17,8.022 -3.5,8.022 l -1.867,0 0,-8.022 c 0,-0.649 -0.56,-1.199 -1.222,-1.199 -0.663,0 -1.202,0.538 -1.202,1.199 0,0 -0.01,8.788 0,9.218 0.006,0.695 0.43,1.208 1.202,1.228 0.403,0.01 3.089,0 3.089,0 1.051,0 1.748,-0.284 2.501,-1.008 C -0.281,8.719 0,8.008 0,6.916 L 0,0 z m -3.913,16.252 c -6.57,0 -11.901,-5.325 -11.901,-11.898 0,-6.572 5.331,-11.895 11.901,-11.895 6.569,0 11.894,5.323 11.894,11.895 0,6.573 -5.325,11.898 -11.894,11.898" /></g><g
   transform="translate(34.5625,61.5874)"
   id="g50"><path
     id="path52"
     style="fill:#ee293d;fill-opacity:1;fill-rule:nonzero;stroke:none"
     d="m 0,0 c -0.708,-0.735 -1.771,-1.163 -2.854,-1.147 -1.153,0.022 -1.638,0.136 -2.83,0.522 -0.478,0.148 -0.782,0.562 -0.782,1.078 -0.01,0.345 0.142,0.678 0.426,0.922 0.311,0.267 0.731,0.381 1.112,0.302 0,0 0.462,-0.129 0.469,-0.131 0.404,-0.119 0.862,-0.26 1.615,-0.24 0.575,0 1.267,0.269 1.202,0.765 -0.051,0.189 -0.19,0.304 -0.177,0.294 -3.707,3.155 -3.72,3.167 -3.733,3.18 -0.656,0.681 -0.914,1.28 -0.914,2.143 0,2.384 1.955,3.231 3.622,3.231 0.967,0 1.771,-0.281 2.401,-0.498 0.547,-0.161 0.834,-0.552 0.834,-1.126 0,-0.409 -0.168,-0.767 -0.455,-0.99 -0.291,-0.23 -0.686,-0.294 -1.122,-0.18 0,0 -0.11,0.031 -0.113,0.034 -0.578,0.17 -1.037,0.309 -1.545,0.309 -0.565,0 -1.166,-0.317 -1.166,-0.78 -0.049,-0.136 0.317,-0.441 0.317,-0.441 0,0 3.383,-2.88 3.631,-3.098 C 0.556,3.581 0.892,2.784 0.898,2.122 0.947,1.334 0.565,0.595 0,0 m -2.763,16.5 c -6.57,0 -11.895,-5.324 -11.895,-11.897 0,-6.571 5.325,-11.896 11.895,-11.896 6.573,0 11.902,5.325 11.898,11.896 0,6.573 -5.325,11.897 -11.898,11.897" /></g><g
   transform="translate(81.021,72.0703)"
   id="g54"><path
     id="path56"
     style="fill:#ee293c;fill-opacity:1;fill-rule:nonzero;stroke:none"
     d="m 0,0 c 1.677,-0.586 2.85,-2.157 2.85,-4.036 l 0,-1.548 C 2.85,-5.93 2.747,-6.205 2.553,-6.395 2.301,-6.678 2.016,-6.804 1.628,-6.804 l -4.908,0 0,-1.086 c 0,-0.37 0.061,-0.538 0.275,-0.754 0.229,-0.23 0.426,-0.306 0.785,-0.306 l 3.848,0 c 0.666,0 1.222,-0.573 1.222,-1.245 0,-0.674 -0.549,-1.217 -1.222,-1.217 l -3.848,0 c -1.076,0 -1.842,0.308 -2.547,1.034 -0.691,0.722 -0.979,1.449 -0.979,2.488 l 0,3.106 c 0,0 0.023,0.758 0.02,0.761 0.08,1.796 1.338,3.406 2.856,4.054 0,0 1.189,1.823 1.348,2.076 0.168,0.263 0.442,0.456 0.763,0.523 0.313,0.073 0.643,0.003 0.905,-0.168 C 0.326,2.353 0.475,2.201 0.569,2.028 0.614,1.943 0.643,1.854 0.669,1.753 0.743,1.435 0.679,1.083 0.481,0.779 L 0,0 z m -1.435,6.023 c -6.573,0 -11.898,-5.325 -11.898,-11.898 0,-6.573 5.325,-11.901 11.898,-11.901 6.579,0 11.901,5.328 11.901,11.901 0,6.573 -5.322,11.898 -11.901,11.898" /></g><g
   transform="translate(79.583,69.7256)"
   id="g58"><path
     id="path60"
     style="fill:#ee293d;fill-opacity:1;fill-rule:nonzero;stroke:none"
     d="m 0,0 c -1.018,0 -1.842,-0.832 -1.842,-1.847 l 0,-0.295 3.69,0 0,0.295 C 1.848,-0.832 1.018,0 0,0" /></g><g
   transform="translate(117.9951,66.1953)"
   id="g62"><path
     id="path64"
     style="fill:#ee293d;fill-opacity:1;fill-rule:nonzero;stroke:none"
     d="m 0,0 c 0,5.161 4.204,9.363 9.371,9.363 5.164,0 9.364,-4.202 9.364,-9.363 0,-5.164 -4.2,-9.371 -9.364,-9.371 C 4.204,-9.371 0,-5.164 0,0 m -2.533,0 c 0,-6.563 5.341,-11.901 11.904,-11.901 6.56,0 11.895,5.338 11.895,11.901 0,6.558 -5.335,11.898 -11.895,11.898 C 2.808,11.898 -2.533,6.558 -2.533,0" /></g><g
   transform="translate(127.9707,83.5029)"
   id="g66"><path
     id="path68"
     style="fill:#ee293d;fill-opacity:1;fill-rule:nonzero;stroke:none"
     d="m 0,0 4.753,0 -3.439,-3.619 -2.701,0 L 0,0 z" /></g><g
   transform="translate(123.0098,72.7036)"
   id="g70"><path
     id="path72"
     style="fill:#ee293d;fill-opacity:1;fill-rule:nonzero;stroke:none"
     d="m 0,0 8.726,0 0,-2.912 -5.394,0 0,-1.877 5.041,0 0,-2.912 -5.041,0 0,-1.877 5.39,0 0,-2.91 -8.722,0 L 0,0 z" /></g><g
   transform="scale(1,-1)"
   style="font-size:19.20000076px;font-style:normal;font-weight:bold;fill:#000000;fill-opacity:1;stroke:none;font-family:Bitstream Vera Sans;-inkscape-font-specification:Arial Bold"
   id="text2841"><path
     d="m 42.715761,-39.343082 2.017968,0.639844 c -0.309384,1.125002 -0.825009,1.96172 -1.546875,2.510156 -0.717195,0.54375 -1.628912,0.815625 -2.735156,0.815625 -1.368754,0 -2.493753,-0.466406 -3.375,-1.399218 -0.881251,-0.937498 -1.321875,-2.217184 -1.321875,-3.839063 0,-1.715618 0.442968,-3.046867 1.328906,-3.99375 0.885935,-0.951552 2.050778,-1.427333 3.494532,-1.427343 1.26093,10e-6 2.285148,0.372666 3.072656,1.117968 0.468741,0.440634 0.820303,1.073446 1.054687,1.898438 l -2.060156,0.492187 c -0.121882,-0.534367 -0.377351,-0.956242 -0.766406,-1.265625 -0.384382,-0.309366 -0.853131,-0.464053 -1.40625,-0.464062 -0.764067,9e-6 -1.38516,0.274227 -1.863281,0.822656 -0.473441,0.548445 -0.710159,1.436725 -0.710157,2.664844 -2e-6,1.303129 0.234372,2.231253 0.703125,2.784375 0.468746,0.553127 1.078121,0.829689 1.828125,0.829687 0.553119,2e-6 1.0289,-0.175779 1.427344,-0.527344 0.39843,-0.35156 0.684368,-0.904684 0.857813,-1.659375"
     style="font-size:14.39999962px;font-variant:normal;font-stretch:normal;font-family:Arial;-inkscape-font-specification:Arial Bold"
     id="path2986" /><path
     d="m 46.53373,-35.553238 0,-10.307812 4.380468,0 c 1.101556,10e-6 1.900774,0.09376 2.397656,0.28125 0.501554,0.182822 0.902335,0.510947 1.202344,0.984375 0.299991,0.473446 0.449991,1.014852 0.45,1.624219 -9e-6,0.773444 -0.227353,1.413287 -0.682031,1.919531 -0.454696,0.501567 -1.134383,0.817973 -2.039063,0.949218 0.449993,0.262505 0.820305,0.550786 1.110938,0.864844 0.295304,0.314066 0.691398,0.871878 1.188281,1.673438 l 1.258594,2.010937 -2.489063,0 -1.504687,-2.242969 c -0.534381,-0.801559 -0.900006,-1.305465 -1.096875,-1.511718 -0.19688,-0.210934 -0.405474,-0.353902 -0.625781,-0.428907 -0.220317,-0.07968 -0.569536,-0.119526 -1.047657,-0.119531 l -0.421875,0 0,4.303125 -2.081249,0 m 2.081249,-5.948437 1.539844,0 c 0.998432,6e-6 1.621869,-0.04218 1.870313,-0.126563 0.24843,-0.08437 0.442961,-0.229681 0.583593,-0.435937 0.140618,-0.206244 0.210931,-0.464056 0.210938,-0.773438 -7e-6,-0.346867 -0.09376,-0.625773 -0.28125,-0.836718 -0.18282,-0.215617 -0.442975,-0.351554 -0.780469,-0.407813 -0.168756,-0.02343 -0.675005,-0.03515 -1.51875,-0.03516 l -1.624219,0 0,2.615625"
     style="font-size:14.39999962px;font-variant:normal;font-stretch:normal;font-family:Arial;-inkscape-font-specification:Arial Bold"
     id="path2988" /><path
     d="m 56.925917,-45.86105 3.803906,0 c 0.857807,10e-6 1.511713,0.06564 1.961719,0.196875 0.60468,0.178135 1.122648,0.494541 1.553906,0.949219 0.431241,0.454696 0.759366,1.012508 0.984375,1.673437 0.22499,0.656257 0.33749,1.467194 0.3375,2.432812 -1e-5,0.848442 -0.105478,1.579691 -0.316406,2.19375 -0.257822,0.750003 -0.62579,1.357033 -1.103906,1.821094 -0.360946,0.351563 -0.848445,0.625782 -1.4625,0.822656 -0.459382,0.145313 -1.073444,0.217969 -1.842188,0.217969 l -3.916406,0 0,-10.307812 m 2.08125,1.74375 0,6.827343 1.553906,0 c 0.581245,2e-6 1.000776,-0.03281 1.258594,-0.09844 0.337494,-0.08437 0.6164,-0.227342 0.836719,-0.428906 0.224993,-0.20156 0.407805,-0.532029 0.548437,-0.991407 0.140618,-0.464058 0.21093,-1.094526 0.210938,-1.891406 -8e-6,-0.796869 -0.07032,-1.408587 -0.210938,-1.835156 -0.140632,-0.426555 -0.337507,-0.759367 -0.590625,-0.998437 -0.253131,-0.239055 -0.574225,-0.400773 -0.963281,-0.485157 -0.290631,-0.06562 -0.860161,-0.09843 -1.708594,-0.09844 l -0.935156,0"
     style="font-size:14.39999962px;font-variant:normal;font-stretch:normal;font-family:Arial;-inkscape-font-specification:Arial Bold"
     id="path2990" /><path
     d="m 67.339198,-35.553238 0,-10.307812 3.339844,0 c 1.265619,10e-6 2.090618,0.05157 2.475,0.154687 0.590617,0.154698 1.085148,0.492198 1.483594,1.0125 0.398428,0.515634 0.597647,1.183602 0.597656,2.003907 -9e-6,0.632819 -0.114853,1.164849 -0.344531,1.596093 -0.229696,0.431255 -0.522665,0.771099 -0.878907,1.019531 -0.35157,0.243755 -0.710163,0.405473 -1.075781,0.485157 -0.496881,0.09844 -1.216412,0.14766 -2.158594,0.147656 l -1.357031,0 0,3.888281 -2.08125,0 m 2.08125,-8.564062 0,2.925 1.139063,0 c 0.820307,5e-6 1.368744,-0.0539 1.645312,-0.161719 0.276556,-0.107807 0.492181,-0.276556 0.646875,-0.50625 0.159368,-0.229681 0.239056,-0.496868 0.239063,-0.801562 -7e-6,-0.374993 -0.110163,-0.684368 -0.330469,-0.928125 -0.220319,-0.243742 -0.499225,-0.396086 -0.836719,-0.457032 -0.248443,-0.04687 -0.747661,-0.0703 -1.497656,-0.07031 l -1.005469,0"
     style="font-size:14.39999962px;font-variant:normal;font-stretch:normal;font-family:Arial;-inkscape-font-specification:Arial Bold"
     id="path2992" /></g><g
   transform="scale(1,-1)"
   style="font-size:32px;font-style:normal;font-weight:normal;fill:#000000;fill-opacity:1;stroke:none;font-family:Bitstream Vera Sans"
   id="text2845"><path
     d="m 35.054042,-22.581106 3.51875,-9.1625 1.30625,0 3.75,9.1625 -1.38125,0 -1.06875,-2.775 -3.83125,0 -1.00625,2.775 -1.2875,0 m 2.64375,-3.7625 3.10625,0 -0.95625,-2.5375 c -0.291671,-0.770827 -0.508337,-1.404159 -0.65,-1.9 -0.116671,0.587507 -0.281254,1.17084 -0.49375,1.75 l -1.00625,2.6875"
     style="font-size:12.80000019px;font-variant:normal;font-stretch:normal;font-family:Arial;-inkscape-font-specification:Arial"
     id="path2945" /><path
     d="m 48.797792,-25.012356 1.10625,0.14375 c -0.120839,0.762501 -0.431256,1.360417 -0.93125,1.79375 -0.495838,0.429167 -1.106254,0.64375 -1.83125,0.64375 -0.908336,0 -1.639585,-0.295833 -2.19375,-0.8875 -0.550001,-0.595832 -0.825,-1.447915 -0.825,-2.55625 0,-0.716663 0.11875,-1.343746 0.35625,-1.88125 0.237499,-0.537495 0.597915,-0.939577 1.08125,-1.20625 0.487498,-0.270827 1.016664,-0.406243 1.5875,-0.40625 0.720829,7e-6 1.310412,0.18334 1.76875,0.55 0.458328,0.362506 0.752078,0.879172 0.88125,1.55 l -1.09375,0.16875 c -0.104171,-0.445829 -0.289588,-0.781245 -0.55625,-1.00625 -0.262504,-0.224995 -0.581254,-0.337494 -0.95625,-0.3375 -0.566669,6e-6 -1.027086,0.204172 -1.38125,0.6125 -0.354168,0.404171 -0.531251,1.045837 -0.53125,1.925 -10e-7,0.891669 0.170832,1.539585 0.5125,1.94375 0.341664,0.404167 0.787497,0.606251 1.3375,0.60625 0.441663,1e-6 0.810413,-0.135416 1.10625,-0.40625 0.295829,-0.270832 0.483329,-0.687498 0.5625,-1.25"
     style="font-size:12.80000019px;font-variant:normal;font-stretch:normal;font-family:Arial;-inkscape-font-specification:Arial"
     id="path2947" /><path
     d="m 55.197793,-23.399856 c -0.416672,0.354167 -0.818754,0.604167 -1.20625,0.75 -0.383337,0.145833 -0.795837,0.21875 -1.2375,0.21875 -0.729169,0 -1.289585,-0.177083 -1.68125,-0.53125 -0.391667,-0.358333 -0.587501,-0.814582 -0.5875,-1.36875 -10e-7,-0.324998 0.07292,-0.620831 0.21875,-0.8875 0.149999,-0.270831 0.343749,-0.487497 0.58125,-0.65 0.241665,-0.162497 0.512498,-0.285413 0.8125,-0.36875 0.220831,-0.05833 0.554164,-0.11458 1,-0.16875 0.908329,-0.10833 1.577079,-0.237496 2.00625,-0.3875 0.0042,-0.154163 0.0062,-0.252079 0.0063,-0.29375 -5e-6,-0.458329 -0.106255,-0.781245 -0.31875,-0.96875 -0.287505,-0.254161 -0.714588,-0.381244 -1.28125,-0.38125 -0.52917,6e-6 -0.920836,0.09376 -1.175,0.28125 -0.250002,0.183338 -0.435419,0.510421 -0.55625,0.98125 l -1.1,-0.15 c 0.1,-0.470828 0.264582,-0.849995 0.49375,-1.1375 0.229165,-0.291661 0.560415,-0.514577 0.99375,-0.66875 0.433331,-0.158327 0.935413,-0.237493 1.50625,-0.2375 0.566662,7e-6 1.027079,0.06667 1.38125,0.2 0.354161,0.13334 0.614578,0.302089 0.78125,0.50625 0.166661,0.200006 0.283327,0.454172 0.35,0.7625 0.03749,0.191672 0.05624,0.537505 0.05625,1.0375 l 0,1.5 c -6e-6,1.045835 0.02291,1.708334 0.06875,1.9875 0.04999,0.275 0.145827,0.539583 0.2875,0.79375 l -1.175,0 c -0.116672,-0.233333 -0.191672,-0.50625 -0.225,-0.81875 m -0.09375,-2.5125 c -0.408338,0.16667 -1.020838,0.308336 -1.8375,0.425 -0.462503,0.06667 -0.789586,0.141669 -0.98125,0.225 -0.191669,0.08334 -0.339585,0.206252 -0.44375,0.36875 -0.104169,0.158335 -0.156252,0.335418 -0.15625,0.53125 -2e-6,0.300001 0.112498,0.550001 0.3375,0.75 0.229164,0.200001 0.562497,0.300001 1,0.3 0.43333,1e-6 0.818746,-0.09375 1.15625,-0.28125 0.337495,-0.191666 0.585412,-0.452082 0.74375,-0.78125 0.120828,-0.254165 0.181245,-0.629164 0.18125,-1.125 l 0,-0.4125"
     style="font-size:12.80000019px;font-variant:normal;font-stretch:normal;font-family:Arial;-inkscape-font-specification:Arial"
     id="path2949" /><path
     d="m 62.297793,-22.581106 0,-0.8375 c -0.420838,0.658333 -1.039588,0.9875 -1.85625,0.9875 -0.52917,0 -1.016669,-0.145834 -1.4625,-0.4375 -0.441668,-0.291666 -0.785418,-0.697916 -1.03125,-1.21875 -0.241667,-0.524998 -0.362501,-1.127081 -0.3625,-1.80625 -10e-7,-0.662496 0.110416,-1.262496 0.33125,-1.8 0.220832,-0.541661 0.552082,-0.956244 0.99375,-1.24375 0.441664,-0.287494 0.935414,-0.431243 1.48125,-0.43125 0.399996,7e-6 0.756246,0.08542 1.06875,0.25625 0.312495,0.166673 0.566662,0.385423 0.7625,0.65625 l 0,-3.2875 1.11875,0 0,9.1625 -1.04375,0 m -3.55625,-3.3125 c -2e-6,0.850002 0.179165,1.485418 0.5375,1.90625 0.358331,0.420834 0.781247,0.631251 1.26875,0.63125 0.491663,1e-6 0.908329,-0.199999 1.25,-0.6 0.345828,-0.404165 0.518745,-1.018748 0.51875,-1.84375 -5e-6,-0.908329 -0.175005,-1.574995 -0.525,-2 -0.350004,-0.424995 -0.781254,-0.637494 -1.29375,-0.6375 -0.500003,6e-6 -0.918753,0.204172 -1.25625,0.6125 -0.333335,0.408338 -0.500002,1.052087 -0.5,1.93125"
     style="font-size:12.80000019px;font-variant:normal;font-stretch:normal;font-family:Arial;-inkscape-font-specification:Arial"
     id="path2951" /><path
     d="m 69.660293,-24.718606 1.1625,0.14375 c -0.18334,0.679168 -0.522923,1.206251 -1.01875,1.58125 -0.495838,0.375 -1.129171,0.5625 -1.9,0.5625 -0.970836,0 -1.741669,-0.297917 -2.3125,-0.89375 -0.566668,-0.599999 -0.850001,-1.439581 -0.85,-2.51875 -10e-7,-1.116663 0.287499,-1.983328 0.8625,-2.6 0.574998,-0.61666 1.320831,-0.924993 2.2375,-0.925 0.887495,7e-6 1.612495,0.30209 2.175,0.90625 0.562494,0.604172 0.843743,1.454171 0.84375,2.55 -7e-6,0.06667 -0.0021,0.16667 -0.0062,0.3 l -4.95,0 c 0.04166,0.729169 0.247915,1.287502 0.61875,1.675 0.370831,0.387501 0.83333,0.581251 1.3875,0.58125 0.412496,1e-6 0.764579,-0.108333 1.05625,-0.325 0.291662,-0.216666 0.522911,-0.562499 0.69375,-1.0375 m -3.69375,-1.81875 3.70625,0 c -0.05,-0.558329 -0.191672,-0.977079 -0.425,-1.25625 -0.358338,-0.433328 -0.822921,-0.649994 -1.39375,-0.65 -0.51667,6e-6 -0.952086,0.172922 -1.30625,0.51875 -0.350002,0.345838 -0.543752,0.808338 -0.58125,1.3875 m 1.2125,-3.50625 0.83125,-1.75 1.475,0 -1.375,1.75 -0.93125,0"
     style="font-size:12.80000019px;font-variant:normal;font-stretch:normal;font-family:Arial;-inkscape-font-specification:Arial"
     id="path2953" /><path
     d="m 72.241543,-22.581106 0,-6.6375 1.00625,0 0,0.93125 c 0.208331,-0.324994 0.485414,-0.585411 0.83125,-0.78125 0.34583,-0.199994 0.73958,-0.299993 1.18125,-0.3 0.491662,7e-6 0.893745,0.10209 1.20625,0.30625 0.316661,0.204173 0.539578,0.489589 0.66875,0.85625 0.524994,-0.774994 1.208326,-1.162493 2.05,-1.1625 0.658325,7e-6 1.164574,0.18334 1.51875,0.55 0.354157,0.362506 0.53124,0.922922 0.53125,1.68125 l 0,4.55625 -1.11875,0 0,-4.18125 c -9e-6,-0.449996 -0.03751,-0.772912 -0.1125,-0.96875 -0.07084,-0.199995 -0.202092,-0.360411 -0.39375,-0.48125 -0.191675,-0.120828 -0.416675,-0.181244 -0.675,-0.18125 -0.466674,6e-6 -0.854173,0.156255 -1.1625,0.46875 -0.308339,0.308338 -0.462506,0.804171 -0.4625,1.4875 l 0,3.85625 -1.125,0 0,-4.3125 c -5e-6,-0.499995 -0.09167,-0.874995 -0.275,-1.125 -0.183338,-0.249995 -0.483337,-0.374994 -0.9,-0.375 -0.31667,6e-6 -0.61042,0.08334 -0.88125,0.25 -0.266669,0.166672 -0.460419,0.410422 -0.58125,0.73125 -0.120836,0.320838 -0.181252,0.783337 -0.18125,1.3875 l 0,3.44375 -1.125,0"
     style="font-size:12.80000019px;font-variant:normal;font-stretch:normal;font-family:Arial;-inkscape-font-specification:Arial"
     id="path2955" /><path
     d="m 82.922792,-30.449856 0,-1.29375 1.125,0 0,1.29375 -1.125,0 m 0,7.86875 0,-6.6375 1.125,0 0,6.6375 -1.125,0"
     style="font-size:12.80000019px;font-variant:normal;font-stretch:normal;font-family:Arial;-inkscape-font-specification:Arial"
     id="path2957" /><path
     d="m 90.310294,-24.718606 1.1625,0.14375 c -0.183339,0.679168 -0.522922,1.206251 -1.01875,1.58125 -0.495838,0.375 -1.129171,0.5625 -1.9,0.5625 -0.970836,0 -1.741668,-0.297917 -2.3125,-0.89375 -0.566667,-0.599999 -0.85,-1.439581 -0.85,-2.51875 0,-1.116663 0.2875,-1.983328 0.8625,-2.6 0.574998,-0.61666 1.320831,-0.924993 2.2375,-0.925 0.887496,7e-6 1.612495,0.30209 2.175,0.90625 0.562494,0.604172 0.843744,1.454171 0.84375,2.55 -6e-6,0.06667 -0.0021,0.16667 -0.0063,0.3 l -4.95,0 c 0.04166,0.729169 0.247915,1.287502 0.61875,1.675 0.370831,0.387501 0.833331,0.581251 1.3875,0.58125 0.412496,1e-6 0.764579,-0.108333 1.05625,-0.325 0.291662,-0.216666 0.522912,-0.562499 0.69375,-1.0375 m -3.69375,-1.81875 3.70625,0 c -0.05,-0.558329 -0.191671,-0.977079 -0.425,-1.25625 -0.358338,-0.433328 -0.82292,-0.649994 -1.39375,-0.65 -0.516669,6e-6 -0.952086,0.172922 -1.30625,0.51875 -0.350002,0.345838 -0.543751,0.808338 -0.58125,1.3875"
     style="font-size:12.80000019px;font-variant:normal;font-stretch:normal;font-family:Arial;-inkscape-font-specification:Arial"
     id="path2959" /><path
     d="m 100.74779,-22.581106 0,-0.8375 c -0.42083,0.658333 -1.039584,0.9875 -1.856246,0.9875 -0.52917,0 -1.016669,-0.145834 -1.4625,-0.4375 -0.441668,-0.291666 -0.785418,-0.697916 -1.03125,-1.21875 -0.241668,-0.524998 -0.362501,-1.127081 -0.3625,-1.80625 -10e-7,-0.662496 0.110416,-1.262496 0.33125,-1.8 0.220832,-0.541661 0.552082,-0.956244 0.99375,-1.24375 0.441664,-0.287494 0.935414,-0.431243 1.48125,-0.43125 0.399996,7e-6 0.756246,0.08542 1.06875,0.25625 0.312496,0.166673 0.566666,0.385423 0.762496,0.65625 l 0,-3.2875 1.11875,0 0,9.1625 -1.04375,0 m -3.556246,-3.3125 c -2e-6,0.850002 0.179164,1.485418 0.5375,1.90625 0.35833,0.420834 0.781247,0.631251 1.26875,0.63125 0.491662,1e-6 0.908329,-0.199999 1.249996,-0.6 0.34583,-0.404165 0.51875,-1.018748 0.51875,-1.84375 0,-0.908329 -0.175,-1.574995 -0.525,-2 -0.350001,-0.424995 -0.78125,-0.637494 -1.293746,-0.6375 -0.500003,6e-6 -0.918753,0.204172 -1.25625,0.6125 -0.333335,0.408338 -0.500002,1.052087 -0.5,1.93125"
     style="font-size:12.80000019px;font-variant:normal;font-stretch:normal;font-family:Arial;-inkscape-font-specification:Arial"
     id="path2961" /><path
     d="m 108.11029,-24.718606 1.1625,0.14375 c -0.18334,0.679168 -0.52292,1.206251 -1.01875,1.58125 -0.49583,0.375 -1.12917,0.5625 -1.9,0.5625 -0.97083,0 -1.74166,-0.297917 -2.3125,-0.89375 -0.56666,-0.599999 -0.85,-1.439581 -0.85,-2.51875 0,-1.116663 0.2875,-1.983328 0.8625,-2.6 0.575,-0.61666 1.32083,-0.924993 2.2375,-0.925 0.8875,7e-6 1.6125,0.30209 2.175,0.90625 0.5625,0.604172 0.84375,1.454171 0.84375,2.55 0,0.06667 -0.002,0.16667 -0.006,0.3 l -4.95,0 c 0.0417,0.729169 0.24792,1.287502 0.61875,1.675 0.37083,0.387501 0.83333,0.581251 1.3875,0.58125 0.4125,1e-6 0.76458,-0.108333 1.05625,-0.325 0.29167,-0.216666 0.52292,-0.562499 0.69375,-1.0375 m -3.69375,-1.81875 3.70625,0 c -0.05,-0.558329 -0.19167,-0.977079 -0.425,-1.25625 -0.35833,-0.433328 -0.82292,-0.649994 -1.39375,-0.65 -0.51667,6e-6 -0.95208,0.172922 -1.30625,0.51875 -0.35,0.345838 -0.54375,0.808338 -0.58125,1.3875"
     style="font-size:12.80000019px;font-variant:normal;font-stretch:normal;font-family:Arial;-inkscape-font-specification:Arial"
     id="path2963" /><path
     d="m 117.00404,-22.581106 -3.55,-9.1625 1.3125,0 2.38125,6.65625 c 0.19166,0.533335 0.35208,1.033335 0.48125,1.5 0.14166,-0.499999 0.30624,-0.999998 0.49375,-1.5 l 2.475,-6.65625 1.2375,0 -3.5875,9.1625 -1.24375,0"
     style="font-size:12.80000019px;font-variant:normal;font-stretch:normal;font-family:Arial;-inkscape-font-specification:Arial"
     id="path2965" /><path
     d="m 126.6353,-24.718606 1.1625,0.14375 c -0.18334,0.679168 -0.52293,1.206251 -1.01875,1.58125 -0.49584,0.375 -1.12918,0.5625 -1.9,0.5625 -0.97084,0 -1.74167,-0.297917 -2.3125,-0.89375 -0.56667,-0.599999 -0.85001,-1.439581 -0.85,-2.51875 -1e-5,-1.116663 0.28749,-1.983328 0.8625,-2.6 0.57499,-0.61666 1.32083,-0.924993 2.2375,-0.925 0.88749,7e-6 1.61249,0.30209 2.175,0.90625 0.56249,0.604172 0.84374,1.454171 0.84375,2.55 -1e-5,0.06667 -0.002,0.16667 -0.006,0.3 l -4.95,0 c 0.0417,0.729169 0.24791,1.287502 0.61875,1.675 0.37083,0.387501 0.83333,0.581251 1.3875,0.58125 0.41249,1e-6 0.76457,-0.108333 1.05625,-0.325 0.29166,-0.216666 0.52291,-0.562499 0.69375,-1.0375 m -3.69375,-1.81875 3.70625,0 c -0.05,-0.558329 -0.19168,-0.977079 -0.425,-1.25625 -0.35834,-0.433328 -0.82293,-0.649994 -1.39375,-0.65 -0.51667,6e-6 -0.95209,0.172922 -1.30625,0.51875 -0.35001,0.345838 -0.54376,0.808338 -0.58125,1.3875"
     style="font-size:12.80000019px;font-variant:normal;font-stretch:normal;font-family:Arial;-inkscape-font-specification:Arial"
     id="path2967" /><path
     d="m 129.20405,-22.581106 0,-6.6375 1.0125,0 0,1.00625 c 0.25833,-0.470828 0.49583,-0.781244 0.7125,-0.93125 0.22083,-0.149994 0.46249,-0.224993 0.725,-0.225 0.37916,7e-6 0.76457,0.12084 1.15625,0.3625 l -0.3875,1.04375 c -0.27501,-0.162495 -0.55001,-0.243745 -0.825,-0.24375 -0.24584,5e-6 -0.46667,0.075 -0.6625,0.225 -0.19584,0.145838 -0.33542,0.350005 -0.41875,0.6125 -0.12501,0.400004 -0.18751,0.837504 -0.1875,1.3125 l 0,3.475 -1.125,0"
     style="font-size:12.80000019px;font-variant:normal;font-stretch:normal;font-family:Arial;-inkscape-font-specification:Arial"
     id="path2969" /><path
     d="m 133.04154,-24.562356 1.1125,-0.175 c 0.0625,0.445835 0.23541,0.787501 0.51875,1.025 0.2875,0.237501 0.6875,0.356251 1.2,0.35625 0.51666,1e-6 0.89999,-0.104166 1.15,-0.3125 0.24999,-0.212499 0.37499,-0.460415 0.375,-0.74375 -10e-6,-0.254165 -0.11042,-0.454165 -0.33125,-0.6 -0.15417,-0.1 -0.5375,-0.227081 -1.15,-0.38125 -0.825,-0.208331 -1.39792,-0.387497 -1.71875,-0.5375 -0.31667,-0.154163 -0.55834,-0.36458 -0.725,-0.63125 -0.1625,-0.270829 -0.24375,-0.568746 -0.24375,-0.89375 0,-0.295828 0.0667,-0.568745 0.2,-0.81875 0.1375,-0.254161 0.32291,-0.464577 0.55625,-0.63125 0.175,-0.12916 0.4125,-0.237494 0.7125,-0.325 0.30416,-0.09166 0.62916,-0.137493 0.975,-0.1375 0.52083,7e-6 0.97708,0.07501 1.36875,0.225 0.39583,0.150006 0.68749,0.354173 0.875,0.6125 0.18749,0.254172 0.31666,0.595838 0.3875,1.025 l -1.1,0.15 c -0.05,-0.341662 -0.19584,-0.608328 -0.4375,-0.8 -0.2375,-0.191661 -0.575,-0.287494 -1.0125,-0.2875 -0.51667,6e-6 -0.88542,0.08542 -1.10625,0.25625 -0.22084,0.170839 -0.33125,0.370838 -0.33125,0.6 0,0.145838 0.0458,0.277088 0.1375,0.39375 0.0917,0.120838 0.23541,0.220837 0.43125,0.3 0.1125,0.04167 0.44375,0.137504 0.99375,0.2875 0.79583,0.212504 1.34999,0.387503 1.6625,0.525 0.31666,0.133336 0.56458,0.32917 0.74375,0.5875 0.17916,0.258336 0.26874,0.579169 0.26875,0.9625 -10e-6,0.375001 -0.11042,0.729168 -0.33125,1.0625 -0.21667,0.329167 -0.53126,0.585417 -0.94375,0.76875 -0.41251,0.179166 -0.87917,0.26875 -1.4,0.26875 -0.8625,0 -1.52084,-0.179167 -1.975,-0.5375 -0.45,-0.358333 -0.7375,-0.889582 -0.8625,-1.59375"
     style="font-size:12.80000019px;font-variant:normal;font-stretch:normal;font-family:Arial;-inkscape-font-specification:Arial"
     id="path2971" /><path
     d="m 144.22279,-23.399856 c -0.41667,0.354167 -0.81875,0.604167 -1.20625,0.75 -0.38334,0.145833 -0.79584,0.21875 -1.2375,0.21875 -0.72917,0 -1.28958,-0.177083 -1.68125,-0.53125 -0.39167,-0.358333 -0.5875,-0.814582 -0.5875,-1.36875 0,-0.324998 0.0729,-0.620831 0.21875,-0.8875 0.15,-0.270831 0.34375,-0.487497 0.58125,-0.65 0.24167,-0.162497 0.5125,-0.285413 0.8125,-0.36875 0.22083,-0.05833 0.55416,-0.11458 1,-0.16875 0.90833,-0.10833 1.57708,-0.237496 2.00625,-0.3875 0.004,-0.154163 0.006,-0.252079 0.006,-0.29375 0,-0.458329 -0.10625,-0.781245 -0.31875,-0.96875 -0.2875,-0.254161 -0.71459,-0.381244 -1.28125,-0.38125 -0.52917,6e-6 -0.92084,0.09376 -1.175,0.28125 -0.25,0.183338 -0.43542,0.510421 -0.55625,0.98125 l -1.1,-0.15 c 0.1,-0.470828 0.26458,-0.849995 0.49375,-1.1375 0.22917,-0.291661 0.56042,-0.514577 0.99375,-0.66875 0.43333,-0.158327 0.93541,-0.237493 1.50625,-0.2375 0.56666,7e-6 1.02708,0.06667 1.38125,0.2 0.35416,0.13334 0.61458,0.302089 0.78125,0.50625 0.16666,0.200006 0.28333,0.454172 0.35,0.7625 0.0375,0.191672 0.0562,0.537505 0.0563,1.0375 l 0,1.5 c -1e-5,1.045835 0.0229,1.708334 0.0687,1.9875 0.05,0.275 0.14583,0.539583 0.2875,0.79375 l -1.175,0 c -0.11667,-0.233333 -0.19167,-0.50625 -0.225,-0.81875 m -0.0937,-2.5125 c -0.40834,0.16667 -1.02084,0.308336 -1.8375,0.425 -0.4625,0.06667 -0.78959,0.141669 -0.98125,0.225 -0.19167,0.08334 -0.33958,0.206252 -0.44375,0.36875 -0.10417,0.158335 -0.15625,0.335418 -0.15625,0.53125 0,0.300001 0.1125,0.550001 0.3375,0.75 0.22916,0.200001 0.5625,0.300001 1,0.3 0.43333,1e-6 0.81875,-0.09375 1.15625,-0.28125 0.3375,-0.191666 0.58541,-0.452082 0.74375,-0.78125 0.12083,-0.254165 0.18125,-0.629164 0.18125,-1.125 l 0,-0.4125"
     style="font-size:12.80000019px;font-variant:normal;font-stretch:normal;font-family:Arial;-inkscape-font-specification:Arial"
     id="path2973" /><path
     d="m 147.02279,-30.449856 0,-1.29375 1.125,0 0,1.29375 -1.125,0 m 0,7.86875 0,-6.6375 1.125,0 0,6.6375 -1.125,0"
     style="font-size:12.80000019px;font-variant:normal;font-stretch:normal;font-family:Arial;-inkscape-font-specification:Arial"
     id="path2975" /><path
     d="m 149.84154,-22.581106 0,-9.1625 1.125,0 0,9.1625 -1.125,0"
     style="font-size:12.80000019px;font-variant:normal;font-stretch:normal;font-family:Arial;-inkscape-font-specification:Arial"
     id="path2977" /><path
     d="m 152.69155,-22.581106 0,-9.1625 1.125,0 0,9.1625 -1.125,0"
     style="font-size:12.80000019px;font-variant:normal;font-stretch:normal;font-family:Arial;-inkscape-font-specification:Arial"
     id="path2979" /><path
     d="m 160.11029,-24.718606 1.1625,0.14375 c -0.18334,0.679168 -0.52292,1.206251 -1.01875,1.58125 -0.49583,0.375 -1.12917,0.5625 -1.9,0.5625 -0.97083,0 -1.74166,-0.297917 -2.3125,-0.89375 -0.56666,-0.599999 -0.85,-1.439581 -0.85,-2.51875 0,-1.116663 0.2875,-1.983328 0.8625,-2.6 0.575,-0.61666 1.32083,-0.924993 2.2375,-0.925 0.8875,7e-6 1.6125,0.30209 2.175,0.90625 0.5625,0.604172 0.84375,1.454171 0.84375,2.55 0,0.06667 -0.002,0.16667 -0.006,0.3 l -4.95,0 c 0.0417,0.729169 0.24792,1.287502 0.61875,1.675 0.37083,0.387501 0.83333,0.581251 1.3875,0.58125 0.4125,1e-6 0.76458,-0.108333 1.05625,-0.325 0.29167,-0.216666 0.52292,-0.562499 0.69375,-1.0375 m -3.69375,-1.81875 3.70625,0 c -0.05,-0.558329 -0.19167,-0.977079 -0.425,-1.25625 -0.35833,-0.433328 -0.82292,-0.649994 -1.39375,-0.65 -0.51667,6e-6 -0.95208,0.172922 -1.30625,0.51875 -0.35,0.345838 -0.54375,0.808338 -0.58125,1.3875"
     style="font-size:12.80000019px;font-variant:normal;font-stretch:normal;font-family:Arial;-inkscape-font-specification:Arial"
     id="path2981" /><path
     d="m 162.24154,-24.562356 1.1125,-0.175 c 0.0625,0.445835 0.23542,0.787501 0.51875,1.025 0.2875,0.237501 0.6875,0.356251 1.2,0.35625 0.51667,1e-6 0.9,-0.104166 1.15,-0.3125 0.25,-0.212499 0.375,-0.460415 0.375,-0.74375 0,-0.254165 -0.11042,-0.454165 -0.33125,-0.6 -0.15417,-0.1 -0.5375,-0.227081 -1.15,-0.38125 -0.825,-0.208331 -1.39791,-0.387497 -1.71875,-0.5375 -0.31666,-0.154163 -0.55833,-0.36458 -0.725,-0.63125 -0.1625,-0.270829 -0.24375,-0.568746 -0.24375,-0.89375 0,-0.295828 0.0667,-0.568745 0.2,-0.81875 0.1375,-0.254161 0.32292,-0.464577 0.55625,-0.63125 0.175,-0.12916 0.4125,-0.237494 0.7125,-0.325 0.30417,-0.09166 0.62917,-0.137493 0.975,-0.1375 0.52083,7e-6 0.97708,0.07501 1.36875,0.225 0.39583,0.150006 0.6875,0.354173 0.875,0.6125 0.1875,0.254172 0.31666,0.595838 0.3875,1.025 l -1.1,0.15 c -0.05,-0.341662 -0.19583,-0.608328 -0.4375,-0.8 -0.2375,-0.191661 -0.575,-0.287494 -1.0125,-0.2875 -0.51667,6e-6 -0.88542,0.08542 -1.10625,0.25625 -0.22083,0.170839 -0.33125,0.370838 -0.33125,0.6 0,0.145838 0.0458,0.277088 0.1375,0.39375 0.0917,0.120838 0.23542,0.220837 0.43125,0.3 0.1125,0.04167 0.44375,0.137504 0.99375,0.2875 0.79583,0.212504 1.35,0.387503 1.6625,0.525 0.31667,0.133336 0.56458,0.32917 0.74375,0.5875 0.17916,0.258336 0.26875,0.579169 0.26875,0.9625 0,0.375001 -0.11042,0.729168 -0.33125,1.0625 -0.21667,0.329167 -0.53125,0.585417 -0.94375,0.76875 -0.4125,0.179166 -0.87917,0.26875 -1.4,0.26875 -0.8625,0 -1.52083,-0.179167 -1.975,-0.5375 -0.45,-0.358333 -0.7375,-0.889582 -0.8625,-1.59375"
     style="font-size:12.80000019px;font-variant:normal;font-stretch:normal;font-family:Arial;-inkscape-font-specification:Arial"
     id="path2983" /></g></g></g></svg>